<svg id="Layer_1" data-name="Layer 1" xmlns="http://www.w3.org/2000/svg" viewBox="0 0 146.29 128.07">
  <defs>
    <style>
      .cls-2{fill:#fff}
    </style>
  </defs>
  <path d="M228.34 86.81c2.15 13.58-1.46 25.2-4.38 32.13-.27.56-.69 1.39-1.26 2.35-7.26 12.29-20.47 16.53-23.69 17.52a45.85 45.85 0 01-17.75 1.75 19.74 19.74 0 01-7 10.75c-6.06 4.55-14.7 5-22.25 1.17a46.25 46.25 0 01-25.51 7.37c-17.08-.36-31.84-10.91-38.74-23-16.41-28.86 12.07-66 15.92-71 6.6-8.61 25.46-33.2 56.33-34 32.2-.85 63.53 24.54 68.33 54.96z" transform="translate(-82.71 -31.79)" fill="#35518a"/>
  <path class="cls-2" d="M183.18 49.48L176 63l-7.5-10.67a33.59 33.59 0 00-10.67-2.67c-4.69-.37-9.21-.73-13.5 2.17a15.42 15.42 0 00-6.66 11.5c-.17 2.56.88 5.24 3 10.5 3.08 7.67 4.36 8.23 5.5 12.83.91 3.7 1.88 7.64.33 11.67-1.81 4.69-5.63 8-12.25 10.25a105.61 105.61 0 00-15 6.5c-8.22 4.35-10 6.72-10.75 7.75a20.16 20.16 0 00-3.26 12.61 23.07 23.07 0 006.26 14.39 18.27 18.27 0 01-10.63-20.25 19.91 19.91 0 013.13-7.38c2.41-3.53 5.2-5.23 9.62-7.87a93 93 0 0115.25-7c3.7-1.44 6.81-2.52 9-3.25a4.63 4.63 0 01-3-2.58 4.4 4.4 0 01-.08-2.92 5.81 5.81 0 013.58-.42 5.74 5.74 0 012.42 1.17 12.28 12.28 0 001.75-3.5c1-3.3.4-6.68-2.75-14-3.75-8.72-4.82-8.43-5.75-12.67-.57-2.58-1.56-7.15.5-12.08 2.43-5.81 7.54-8.39 9.25-9.25 4.53-2.29 8.63-2.29 12-2.25a35.81 35.81 0 0115.75 3.92zM212.84 93.64a23.18 23.18 0 01-2.66 12.36 22.29 22.29 0 01-9.34 8.66 28.9 28.9 0 01-14.33 3.34c-8.78 0-16.13-3.54-19.75-5.28-2.59-1.24-5.29-2.24-7.88-3.5s-3.91-2-5.87-2.12a10.28 10.28 0 00-6.17 1.92l-4 3.16c.13-.74 1.1-5.82 5.42-8a10.51 10.51 0 015.67-.87c2 .17 3.55.46 6.91 2.5a47.81 47.81 0 006.84 3.33c10.07 5.13 21.16 3.86 22.66 3.67a24.42 24.42 0 008.29-2.38 21.07 21.07 0 007.05-6c1.56-2.1 4-5.42 3.66-9.84a11.73 11.73 0 00-1.66-5q-6.35-3.24-12.67-6.5a81 81 0 0114.5-10.5q1.08 6.75 2.17 13.5a28.56 28.56 0 011.16 7.55z" transform="translate(-82.71 -31.79)"/>
  <circle class="cls-2" cx="79.55" cy="109.1" r="10.58"/>
  <path class="cls-2" d="M147.55 141.38l2.71 7.93a41.54 41.54 0 01-11.08 4.69c-3.54.9-7.11 1.82-11.67 1.08a22.9 22.9 0 01-10.33-4.58 62.34 62.34 0 008.66-.84 59.72 59.72 0 0013.92-4.08 56.29 56.29 0 007.79-4.2z" transform="translate(-82.71 -31.79)"/>
</svg>
